<svg width="152.000000" height="19.000000" viewBox="0 0 152 19" fill="none" xmlns="http://www.w3.org/2000/svg" xmlns:xlink="http://www.w3.org/1999/xlink">
	<desc>
			Created with Pixso.
	</desc>
	<defs>
		<clipPath id="clip3_399">
			<rect id="Logo" width="152.000000" height="19.000000" transform="translate(-0.270630 0.000000)" fill="white" fill-opacity="0"/>
		</clipPath>
	</defs>
	<rect id="Logo" width="152.000000" height="19.000000" transform="translate(-0.270630 0.000000)" fill="#FFFFFF" fill-opacity="0"/>
	<g clip-path="url(#clip3_399)">
		<path id="Vector" d="M75.42 16.37L70.3 16.37L70.3 2.68L75.42 2.68L75.42 16.37ZM70.8 15.87L74.92 15.87L74.92 3.18L70.8 3.18L70.8 15.87ZM82.54 16.37L77.52 16.37L77.52 2.68L88.01 2.68C89.51 2.56 91 2.98 92.22 3.87C92.74 4.35 93.15 4.94 93.41 5.6C93.66 6.27 93.76 6.98 93.7 7.69C93.77 8.91 93.39 10.11 92.61 11.06C91.69 12.11 90.17 12.65 88.08 12.67C87.55 12.69 83.6 12.67 82.54 12.67L82.54 16.37ZM78.02 15.87L82.04 15.87L82.04 12.17L82.29 12.17C82.34 12.17 87.47 12.18 88.06 12.17C90.01 12.15 91.41 11.67 92.23 10.73C92.92 9.87 93.26 8.78 93.19 7.68C93.25 7.05 93.17 6.41 92.94 5.82C92.72 5.22 92.36 4.69 91.89 4.25C90.76 3.44 89.38 3.06 88 3.18L78.02 3.18L78.02 15.87ZM86.94 9.6L82.01 9.6L82.01 5.87L86.98 5.87C87.33 5.82 87.69 5.87 88.02 5.99C88.35 6.12 88.65 6.33 88.88 6.6C89.09 6.95 89.18 7.35 89.16 7.75C89.18 8.13 89.1 8.5 88.92 8.83C88.69 9.12 88.38 9.34 88.03 9.47C87.69 9.61 87.31 9.65 86.94 9.59L86.94 9.6ZM82.51 9.1L86.94 9.1C87.76 9.1 88.27 8.93 88.5 8.58C88.62 8.32 88.68 8.04 88.66 7.75C88.68 7.45 88.62 7.16 88.47 6.89L88.47 6.89C88.23 6.54 87.76 6.37 86.98 6.37L82.51 6.37L82.51 9.1ZM102.82 16.57C98.33 16.57 95.65 15.46 94.63 13.16C94.47 12.72 94.35 12.26 94.3 11.79L94.25 11.5L99.59 11.5L99.63 11.71C99.67 11.92 99.76 12.12 99.89 12.3C100.1 12.55 100.81 12.98 103.14 12.98C105.95 12.98 105.95 12.49 105.95 12.22C105.95 11.77 105.63 11.62 103.34 11.38L102.9 11.34C102.04 11.26 100.95 11.15 100.45 11.11C96.25 10.73 94.38 9.42 94.38 6.88C94.38 4.21 97.57 2.48 102.51 2.48C106.54 2.48 109.13 3.54 110.22 5.64C110.48 6.13 110.65 6.65 110.73 7.2L110.77 7.48L105.42 7.48L105.4 7.26C105.38 7.08 105.3 6.91 105.18 6.78C104.98 6.51 104.35 6.07 102.39 6.07C99.98 6.07 99.65 6.38 99.65 6.71C99.65 7.15 100.41 7.31 102.85 7.57C103.86 7.65 105.5 7.82 106.06 7.89C109.58 8.27 111.15 9.55 111.15 12.02C111.15 14.09 109.71 16.57 102.82 16.57ZM94.84 12C94.89 12.33 94.97 12.65 95.09 12.97C96.02 15.05 98.55 16.07 102.82 16.07C106.4 16.07 110.66 15.37 110.66 12.02C110.66 9.83 109.27 8.74 106.01 8.39C105.45 8.32 103.82 8.15 102.81 8.07C100.21 7.79 99.15 7.64 99.15 6.71C99.15 5.75 100.29 5.57 102.39 5.57C104.05 5.57 105.12 5.87 105.58 6.48C105.7 6.62 105.8 6.8 105.86 6.98L110.19 6.98C110.1 6.6 109.96 6.22 109.78 5.87C108.78 3.95 106.34 2.98 102.51 2.98C97.87 2.98 94.88 4.51 94.88 6.88C94.88 9.14 96.56 10.26 100.5 10.61C101 10.65 102.09 10.76 102.95 10.84L103.39 10.88C105.52 11.1 106.45 11.24 106.45 12.22C106.45 13.27 105.24 13.48 103.15 13.48C101.21 13.48 99.98 13.19 99.51 12.62C99.36 12.43 99.25 12.22 99.19 12L94.84 12ZM120.65 16.55C115.43 16.55 112.55 14.44 112.55 10.61L112.55 2.68L117.6 2.68L117.6 10.61C117.6 11.92 118.78 12.68 120.83 12.68C122.79 12.68 124.01 11.89 124.01 10.63L124.01 2.68L129.01 2.68L129.01 11.03C129.01 14.54 125.96 16.55 120.65 16.55L120.65 16.55ZM113.05 3.18L113.05 10.61C113.05 15.35 117.81 16.05 120.65 16.05C123.59 16.05 128.52 15.4 128.52 11.03L128.52 3.18L124.52 3.18L124.52 10.63C124.52 12.18 123.07 13.18 120.84 13.18C118.51 13.18 117.11 12.22 117.11 10.61L117.11 3.18L113.05 3.18ZM150.2 16.37L145.43 16.37L145.43 10.19L142.72 16.37L138.57 16.37L135.89 10.2L135.89 16.37L131.1 16.37L131.1 2.68L137.4 2.68L140.67 10.23L144.1 2.68L150.2 2.68L150.2 16.37ZM145.93 15.87L149.7 15.87L149.7 3.18L144.41 3.18L140.65 11.46L137.07 3.18L131.6 3.18L131.6 15.87L135.39 15.87L135.39 7.79L138.89 15.87L142.39 15.87L145.92 7.81L145.93 15.87ZM5.78 2.93L1.22 2.93L1.22 16.12L13.81 16.12L13.81 12.61L5.78 12.61L5.78 2.93ZM23 2.63C17.19 2.63 14.13 5.39 14.13 9.43C14.13 14 17.34 16.32 23 16.32C29.23 16.32 31.85 13.63 31.85 9.43C31.85 5.17 28.9 2.63 23 2.63L23 2.63ZM22.98 6.06C23.38 6.06 23.77 6.08 24.17 6.13L19.08 11.22C18.84 10.67 18.72 10.08 18.73 9.49C18.73 7.42 19.77 6.06 22.98 6.06L22.98 6.06ZM23 12.95C22.62 12.95 22.24 12.93 21.86 12.88L26.96 7.78C27.19 8.32 27.3 8.9 27.28 9.48C27.28 11.49 26.32 12.94 23 12.94L23 12.95ZM40.88 11.15L45.56 11.15C45.49 11.47 45.35 11.78 45.14 12.04C44.17 12.83 42.93 13.21 41.68 13.11C41.05 13.18 40.42 13.11 39.82 12.91C39.22 12.71 38.67 12.38 38.21 11.95C37.73 11.26 37.51 10.42 37.57 9.58C37.49 8.7 37.73 7.83 38.26 7.11C38.91 6.37 40.02 6.05 41.65 6.05C42.69 5.97 43.72 6.24 44.59 6.81C44.86 7.03 45.07 7.32 45.18 7.65L49.52 7.65C49.49 7.11 49.36 6.57 49.14 6.07C48.1 3.95 45.68 2.69 41.56 2.69C37.98 2.69 35.58 3.79 34.25 5.43C33.38 6.62 32.93 8.07 32.98 9.55C32.92 11.06 33.36 12.55 34.22 13.78C35.54 15.48 37.87 16.32 40.68 16.32C42.54 16.45 44.39 15.93 45.92 14.84L46.04 16.12L49.65 16.12L49.65 8.31L40.88 8.31L40.88 11.15ZM59.9 2.63C54.08 2.63 51.03 5.38 51.03 9.43C51.03 14 54.23 16.32 59.9 16.32C66.13 16.32 68.75 13.63 68.75 9.43C68.75 5.17 65.79 2.63 59.9 2.63L59.9 2.63ZM59.88 6.05C60.26 6.05 60.65 6.08 61.03 6.12L55.96 11.2C55.73 10.66 55.61 10.07 55.63 9.49C55.62 7.42 56.67 6.05 59.88 6.05ZM59.9 12.94C59.5 12.94 59.11 12.92 58.72 12.87L63.84 7.76C64.08 8.3 64.2 8.89 64.18 9.48C64.18 11.49 63.22 12.94 59.9 12.94L59.9 12.94Z" fill="#1D1E1C" fill-opacity="1.000000" fill-rule="nonzero"/>
	</g>
</svg>
